{
  "accessors": [
    {
      "bufferView": 2,
      "componentType": 5126,
      "count": 17623,
      "max": [
        1.1109199523925781,
        5.7048702239990234,
        0.59902000427246094
      ],
      "min": [
        -1.2576099634170532,
        -4.5550799369812012,
        -0.59902000427246094
      ],
      "type": "VEC3"
    },
    {
      "bufferView": 2,
      "byteOffset": 211476,
      "componentType": 5126,
      "count": 17623,
      "max": [
        1,
        1,
        1
      ],
      "min": [
        -1,
        -1,
        -1
      ],
      "type": "VEC3"
    },
    {
      "bufferView": 3,
      "componentType": 5126,
      "count": 17623,
      "max": [
        1,
        0.99999302625656128,
        1,
        1
      ],
      "min": [
        -0.7844347357749939,
        -1,
        -1,
        1
      ],
      "type": "VEC4"
    },
    {
      "bufferView": 1,
      "componentType": 5126,
      "count": 17623,
      "max": [
        0.99274998903274536,
        0.99234998226165771
      ],
      "min": [
        0.0072499997913837433,
        0.0076500000432133675
      ],
      "type": "VEC2"
    },
    {
      "bufferView": 0,
      "componentType": 5125,
      "count": 95232,
      "max": [
        17622
      ],
      "min": [
        0
      ],
      "type": "SCALAR"
    }
  ],
  "asset": {
    "extras": {
      "author": "afferu (https://sketchfab.com/afferu)",
      "license": "CC-BY-SA-4.0 (http://creativecommons.org/licenses/by-sa/4.0/)",
      "source": "https://sketchfab.com/models/4fec04c045844a22b77b6e645efed628",
      "title": "CSGO T-knife"
    },
    "generator": "Sketchfab-3.22.6",
    "version": "2.0"
  },
  "bufferViews": [
    {
      "buffer": 0,
      "byteLength": 380928,
      "byteOffset": 0,
      "name": "floatBufferViews",
      "target": 34963
    },
    {
      "buffer": 0,
      "byteLength": 140984,
      "byteOffset": 380928,
      "byteStride": 8,
      "name": "floatBufferViews",
      "target": 34962
    },
    {
      "buffer": 0,
      "byteLength": 422952,
      "byteOffset": 521912,
      "byteStride": 12,
      "name": "floatBufferViews",
      "target": 34962
    },
    {
      "buffer": 0,
      "byteLength": 281968,
      "byteOffset": 944864,
      "byteStride": 16,
      "name": "floatBufferViews",
      "target": 34962
    }
  ],
  "buffers": [
    {
      "byteLength": 1226832,
      "uri": "tknife.bin"
    }
  ],
  "images": [
    {
      "uri": "texturesTKnife/Knife_mat_baseColor.png"
    },
    {
      "uri": "texturesTKnife/Knife_mat_metallicRoughness.png"
    }
  ],
  "materials": [
    {
      "doubleSided": true,
      "emissiveFactor": [
        0,
        0,
        0
      ],
      "name": "Knife_mat",
      "pbrMetallicRoughness": {
        "baseColorFactor": [
          1,
          1,
          1,
          1
        ],
        "baseColorTexture": {
          "index": 0,
          "texCoord": 0
        },
        "metallicFactor": 1,
        "metallicRoughnessTexture": {
          "index": 1,
          "texCoord": 0
        },
        "roughnessFactor": 0.25171493900000003
      }
    }
  ],
  "meshes": [
    {
      "name": "T_knife_hp_0",
      "primitives": [
        {
          "attributes": {
            "NORMAL": 1,
            "POSITION": 0,
            "TANGENT": 2,
            "TEXCOORD_0": 3
          },
          "indices": 4,
          "material": 0,
          "mode": 4
        }
      ]
    }
  ],
  "nodes": [
    {
      "children": [
        1
      ],
      "name": "RootNode (gltf orientation matrix)",
      "rotation": [
        -0.70710678118654746,
        -0,
        -0,
        0.70710678118654757
      ]
    },
    {
      "children": [
        2
      ],
      "matrix": [
        0.99997687339782715,
        -0.0046944571658968925,
        0.0049261222593486309,
        0,
        -0.0048992205411195755,
        0.0057248575612902641,
        0.99997162818908691,
        0,
        -0.0047225248999893665,
        -0.99997258186340332,
        0.0057017258368432522,
        0,
        0.0030846334993839264,
        0.62601298093795776,
        -0.62958681583404541,
        1
      ],
      "name": "RootNode (model correction matrix)"
    },
    {
      "children": [
        3
      ],
      "name": "Root"
    },
    {
      "children": [
        4
      ],
      "matrix": [
        1,
        0,
        0,
        0,
        0,
        1,
        0,
        0,
        0,
        0,
        1,
        0,
        0,
        0.055080000000000004,
        0,
        1
      ],
      "name": "T_knife_hp"
    },
    {
      "mesh": 0,
      "name": "T_knife_hp_0"
    }
  ],
  "samplers": [
    {
      "magFilter": 9729,
      "minFilter": 9987,
      "wrapS": 10497,
      "wrapT": 10497
    }
  ],
  "scene": 0,
  "scenes": [
    {
      "name": "OSG_Scene",
      "nodes": [
        0
      ]
    }
  ],
  "textures": [
    {
      "sampler": 0,
      "source": 0
    },
    {
      "sampler": 0,
      "source": 1
    }
  ]
}

